<mxGraphModel dx="1434" dy="794" grid="1" gridSize="10" guides="1" tooltips="1" connect="1" arrows="1" fold="1" page="1" pageScale="1" pageWidth="827" pageHeight="1169" math="0" shadow="0">
  <root>
    <mxCell id="0" />
    <mxCell id="1" parent="0" />
    <mxCell id="2" value="Teacher" style="shape=umlActor;verticalLabelPosition=bottom;verticalAlign=top;html=1;outlineConnect=0;fillColor=#f7c595;strokeColor=#36393d;" vertex="1" parent="1">
      <mxGeometry x="100" y="310" width="30" height="60" as="geometry" />
    </mxCell>
    <mxCell id="3" value="Course Management" style="swimlane;fontStyle=1;align=center;verticalAlign=top;childLayout=stackLayout;horizontal=1;startSize=30;horizontalStack=0;resizeParent=1;resizeParentMax=0;resizeLast=0;collapsible=1;marginBottom=0;html=1;strokeColor=#36393d;fillColor=#f9f7ed;" vertex="1" parent="1">
      <mxGeometry x="290" y="80" width="400" height="480" as="geometry" />
    </mxCell>
    <mxCell id="4" value="Browse Courses" style="ellipse;whiteSpace=wrap;html=1;align=center;fillColor=#ffffff;strokeColor=#36393d;" vertex="1" parent="3">
      <mxGeometry x="30" y="30" width="340" height="50" as="geometry" />
    </mxCell>
    <mxCell id="5" value="Create Course" style="ellipse;whiteSpace=wrap;html=1;align=center;fillColor=#ffffff;strokeColor=#36393d;" vertex="1" parent="3">
      <mxGeometry x="30" y="80" width="340" height="50" as="geometry" />
    </mxCell>
    <mxCell id="6" value="Edit Course" style="ellipse;whiteSpace=wrap;html=1;align=center;fillColor=#ffffff;strokeColor=#36393d;" vertex="1" parent="3">
      <mxGeometry x="30" y="130" width="340" height="50" as="geometry" />
    </mxCell>
    <mxCell id="7" value="Delete Course" style="ellipse;whiteSpace=wrap;html=1;align=center;fillColor=#ffffff;strokeColor=#36393d;" vertex="1" parent="3">
      <mxGeometry x="30" y="180" width="340" height="50" as="geometry" />
    </mxCell>
    <mxCell id="8" value="Add Lessons" style="ellipse;whiteSpace=wrap;html=1;align=center;fillColor=#ffffff;strokeColor=#36393d;" vertex="1" parent="3">
      <mxGeometry x="30" y="230" width="340" height="50" as="geometry" />
    </mxCell>
    <mxCell id="9" value="Manage Course Documents" style="ellipse;whiteSpace=wrap;html=1;align=center;fillColor=#ffffff;strokeColor=#36393d;" vertex="1" parent="3">
      <mxGeometry x="30" y="280" width="340" height="50" as="geometry" />
    </mxCell>
    <mxCell id="10" value="Upload Course Materials" style="ellipse;whiteSpace=wrap;html=1;align=center;fillColor=#ffffff;strokeColor=#36393d;" vertex="1" parent="3">
      <mxGeometry x="30" y="330" width="340" height="50" as="geometry" />
    </mxCell>
    <mxCell id="11" value="Set Prerequisites" style="ellipse;whiteSpace=wrap;html=1;align=center;fillColor=#ffffff;strokeColor=#36393d;" vertex="1" parent="3">
      <mxGeometry x="30" y="380" width="340" height="50" as="geometry" />
    </mxCell>
    <mxCell id="12" value="" style="endArrow=block;endFill=0;html=1;edgeStyle=orthogonalEdgeStyle;align=left;verticalAlign=top;rounded=0;sourcePerimeterSpacing=0;targetPerimeterSpacing=0;" edge="1" parent="1" source="2" target="4">
      <mxGeometry relative="1" as="geometry" />
    </mxCell>
    <mxCell id="13" value="" style="endArrow=block;endFill=0;html=1;edgeStyle=orthogonalEdgeStyle;align=left;verticalAlign=top;rounded=0;sourcePerimeterSpacing=0;targetPerimeterSpacing=0;" edge="1" parent="1" source="2" target="5">
      <mxGeometry relative="1" as="geometry" />
    </mxCell>
    <mxCell id="14" value="" style="endArrow=block;endFill=0;html=1;edgeStyle=orthogonalEdgeStyle;align=left;verticalAlign=top;rounded=0;sourcePerimeterSpacing=0;targetPerimeterSpacing=0;" edge="1" parent="1" source="2" target="6">
      <mxGeometry relative="1" as="geometry" />
    </mxCell>
    <mxCell id="15" value="" style="endArrow=block;endFill=0;html=1;edgeStyle=orthogonalEdgeStyle;align=left;verticalAlign=top;rounded=0;sourcePerimeterSpacing=0;targetPerimeterSpacing=0;" edge="1" parent="1" source="2" target="7">
      <mxGeometry relative="1" as="geometry" />
    </mxCell>
    <mxCell id="16" value="" style="endArrow=block;endFill=0;html=1;edgeStyle=orthogonalEdgeStyle;align=left;verticalAlign=top;rounded=0;sourcePerimeterSpacing=0;targetPerimeterSpacing=0;" edge="1" parent="1" source="2" target="8">
      <mxGeometry relative="1" as="geometry" />
    </mxCell>
    <mxCell id="17" value="" style="endArrow=block;endFill=0;html=1;edgeStyle=orthogonalEdgeStyle;align=left;verticalAlign=top;rounded=0;sourcePerimeterSpacing=0;targetPerimeterSpacing=0;" edge="1" parent="1" source="2" target="9">
      <mxGeometry relative="1" as="geometry" />
    </mxCell>
    <mxCell id="18" value="" style="endArrow=block;endFill=0;html=1;edgeStyle=orthogonalEdgeStyle;align=left;verticalAlign=top;rounded=0;sourcePerimeterSpacing=0;targetPerimeterSpacing=0;" edge="1" parent="1" source="2" target="10">
      <mxGeometry relative="1" as="geometry" />
    </mxCell>
    <mxCell id="19" value="" style="endArrow=block;endFill=0;html=1;edgeStyle=orthogonalEdgeStyle;align=left;verticalAlign=top;rounded=0;sourcePerimeterSpacing=0;targetPerimeterSpacing=0;" edge="1" parent="1" source="2" target="11">
      <mxGeometry relative="1" as="geometry" />
    </mxCell>
    <mxCell id="20" value="&amp;lt;&amp;lt;include&amp;gt;&amp;gt;" style="edgeStyle=orthogonalEdgeStyle;html=1;align=left;verticalAlign=top;rounded=0;endArrow=open;endFill=0;dashed=1;entryX=1;entryY=0.5;entryDx=0;entryDy=0;" edge="1" parent="1" source="5" target="8">
      <mxGeometry relative="1" as="geometry">
        <mxPoint x="710" y="355" as="targetPoint" />
        <Array as="points">
          <mxPoint x="720" y="180" />
          <mxPoint x="720" y="305" />
        </Array>
      </mxGeometry>
    </mxCell>
    <mxCell id="21" value="&amp;lt;&amp;lt;include&amp;gt;&amp;gt;" style="edgeStyle=orthogonalEdgeStyle;html=1;align=left;verticalAlign=top;rounded=0;endArrow=open;endFill=0;dashed=1;" edge="1" parent="1" source="5" target="10">
      <mxGeometry relative="1" as="geometry">
        <mxPoint x="710" y="180" as="sourcePoint" />
        <mxPoint x="710" y="430" as="targetPoint" />
        <Array as="points">
          <mxPoint x="740" y="180" />
          <mxPoint x="740" y="430" />
        </Array>
      </mxGeometry>
    </mxCell>
    <mxCell id="22" value="&amp;lt;&amp;lt;extend&amp;gt;&amp;gt;" style="edgeStyle=orthogonalEdgeStyle;html=1;align=left;verticalAlign=top;rounded=0;endArrow=open;endFill=0;dashed=1;" edge="1" parent="1" source="11" target="5">
      <mxGeometry relative="1" as="geometry">
        <mxPoint x="710" y="480" as="sourcePoint" />
        <mxPoint x="710" y="180" as="targetPoint" />
        <Array as="points">
          <mxPoint x="760" y="480" />
          <mxPoint x="760" y="180" />
        </Array>
      </mxGeometry>
    </mxCell>
  </root>
</mxGraphModel> 